<mxfile host="app.diagrams.net" modified="2022-06-19T22:53:45.534Z" agent="5.0 (Macintosh; Intel Mac OS X 10_15_7) AppleWebKit/605.1.15 (KHTML, like Gecko) Version/15.4 Safari/605.1.15" etag="LciriEsek_MZkgKiVlHG" version="20.0.1" type="github">
  <diagram id="C5RBs43oDa-KdzZeNtuy" name="Page-1">
    <mxGraphModel dx="786" dy="457" grid="1" gridSize="10" guides="1" tooltips="1" connect="1" arrows="1" fold="1" page="1" pageScale="1" pageWidth="827" pageHeight="1169" math="0" shadow="0">
      <root>
        <mxCell id="WIyWlLk6GJQsqaUBKTNV-0" />
        <mxCell id="WIyWlLk6GJQsqaUBKTNV-1" parent="WIyWlLk6GJQsqaUBKTNV-0" />
        <mxCell id="MLaNM-oZyAOdqdqEO5S3-0" value="" style="edgeStyle=orthogonalEdgeStyle;rounded=0;orthogonalLoop=1;jettySize=auto;html=1;" edge="1" parent="WIyWlLk6GJQsqaUBKTNV-1" source="MLaNM-oZyAOdqdqEO5S3-1" target="MLaNM-oZyAOdqdqEO5S3-3">
          <mxGeometry relative="1" as="geometry" />
        </mxCell>
        <mxCell id="MLaNM-oZyAOdqdqEO5S3-1" value="Start" style="ellipse;whiteSpace=wrap;html=1;" vertex="1" parent="WIyWlLk6GJQsqaUBKTNV-1">
          <mxGeometry x="70" y="30" width="120" height="40" as="geometry" />
        </mxCell>
        <mxCell id="MLaNM-oZyAOdqdqEO5S3-2" value="" style="edgeStyle=orthogonalEdgeStyle;rounded=0;orthogonalLoop=1;jettySize=auto;html=1;" edge="1" parent="WIyWlLk6GJQsqaUBKTNV-1" source="MLaNM-oZyAOdqdqEO5S3-3" target="MLaNM-oZyAOdqdqEO5S3-5">
          <mxGeometry relative="1" as="geometry" />
        </mxCell>
        <mxCell id="MLaNM-oZyAOdqdqEO5S3-3" value="nums [ ]" style="shape=parallelogram;perimeter=parallelogramPerimeter;whiteSpace=wrap;html=1;fixedSize=1;" vertex="1" parent="WIyWlLk6GJQsqaUBKTNV-1">
          <mxGeometry x="70" y="110" width="120" height="60" as="geometry" />
        </mxCell>
        <mxCell id="MLaNM-oZyAOdqdqEO5S3-4" value="" style="edgeStyle=orthogonalEdgeStyle;rounded=0;orthogonalLoop=1;jettySize=auto;html=1;" edge="1" parent="WIyWlLk6GJQsqaUBKTNV-1" source="MLaNM-oZyAOdqdqEO5S3-5" target="MLaNM-oZyAOdqdqEO5S3-8">
          <mxGeometry relative="1" as="geometry" />
        </mxCell>
        <mxCell id="MLaNM-oZyAOdqdqEO5S3-5" value="size = nums.length&lt;br&gt;ind = 0&lt;br&gt;sum = 0&lt;br&gt;avg = 0" style="whiteSpace=wrap;html=1;" vertex="1" parent="WIyWlLk6GJQsqaUBKTNV-1">
          <mxGeometry x="70" y="190" width="120" height="60" as="geometry" />
        </mxCell>
        <mxCell id="MLaNM-oZyAOdqdqEO5S3-6" value="" style="edgeStyle=orthogonalEdgeStyle;rounded=0;orthogonalLoop=1;jettySize=auto;html=1;" edge="1" parent="WIyWlLk6GJQsqaUBKTNV-1" source="MLaNM-oZyAOdqdqEO5S3-8" target="MLaNM-oZyAOdqdqEO5S3-10">
          <mxGeometry relative="1" as="geometry" />
        </mxCell>
        <mxCell id="MLaNM-oZyAOdqdqEO5S3-7" value="" style="edgeStyle=orthogonalEdgeStyle;rounded=0;orthogonalLoop=1;jettySize=auto;html=1;" edge="1" parent="WIyWlLk6GJQsqaUBKTNV-1" source="MLaNM-oZyAOdqdqEO5S3-8" target="MLaNM-oZyAOdqdqEO5S3-15">
          <mxGeometry relative="1" as="geometry" />
        </mxCell>
        <mxCell id="MLaNM-oZyAOdqdqEO5S3-8" value="nums &amp;lt; size" style="rhombus;whiteSpace=wrap;html=1;" vertex="1" parent="WIyWlLk6GJQsqaUBKTNV-1">
          <mxGeometry x="90" y="270" width="80" height="50" as="geometry" />
        </mxCell>
        <mxCell id="MLaNM-oZyAOdqdqEO5S3-9" value="" style="edgeStyle=orthogonalEdgeStyle;rounded=0;orthogonalLoop=1;jettySize=auto;html=1;" edge="1" parent="WIyWlLk6GJQsqaUBKTNV-1" source="MLaNM-oZyAOdqdqEO5S3-10" target="MLaNM-oZyAOdqdqEO5S3-12">
          <mxGeometry relative="1" as="geometry" />
        </mxCell>
        <mxCell id="MLaNM-oZyAOdqdqEO5S3-10" value="sum = sum + ind" style="whiteSpace=wrap;html=1;" vertex="1" parent="WIyWlLk6GJQsqaUBKTNV-1">
          <mxGeometry x="70" y="340" width="120" height="60" as="geometry" />
        </mxCell>
        <mxCell id="MLaNM-oZyAOdqdqEO5S3-11" style="edgeStyle=orthogonalEdgeStyle;rounded=0;orthogonalLoop=1;jettySize=auto;html=1;entryX=0;entryY=0.5;entryDx=0;entryDy=0;" edge="1" parent="WIyWlLk6GJQsqaUBKTNV-1" source="MLaNM-oZyAOdqdqEO5S3-12" target="MLaNM-oZyAOdqdqEO5S3-8">
          <mxGeometry relative="1" as="geometry">
            <Array as="points">
              <mxPoint x="50" y="450" />
              <mxPoint x="50" y="295" />
            </Array>
          </mxGeometry>
        </mxCell>
        <mxCell id="MLaNM-oZyAOdqdqEO5S3-12" value="ind = ind + 1" style="whiteSpace=wrap;html=1;" vertex="1" parent="WIyWlLk6GJQsqaUBKTNV-1">
          <mxGeometry x="70" y="420" width="120" height="60" as="geometry" />
        </mxCell>
        <mxCell id="MLaNM-oZyAOdqdqEO5S3-13" value="Yes" style="text;html=1;align=center;verticalAlign=middle;resizable=0;points=[];autosize=1;strokeColor=none;fillColor=none;" vertex="1" parent="WIyWlLk6GJQsqaUBKTNV-1">
          <mxGeometry x="130" y="320" width="40" height="20" as="geometry" />
        </mxCell>
        <mxCell id="MLaNM-oZyAOdqdqEO5S3-14" value="" style="edgeStyle=orthogonalEdgeStyle;rounded=0;orthogonalLoop=1;jettySize=auto;html=1;" edge="1" parent="WIyWlLk6GJQsqaUBKTNV-1" source="MLaNM-oZyAOdqdqEO5S3-15" target="MLaNM-oZyAOdqdqEO5S3-18">
          <mxGeometry relative="1" as="geometry" />
        </mxCell>
        <mxCell id="MLaNM-oZyAOdqdqEO5S3-15" value="avg = sum/(size-1)" style="whiteSpace=wrap;html=1;" vertex="1" parent="WIyWlLk6GJQsqaUBKTNV-1">
          <mxGeometry x="220" y="265" width="120" height="60" as="geometry" />
        </mxCell>
        <mxCell id="MLaNM-oZyAOdqdqEO5S3-16" value="No" style="text;html=1;align=center;verticalAlign=middle;resizable=0;points=[];autosize=1;strokeColor=none;fillColor=none;" vertex="1" parent="WIyWlLk6GJQsqaUBKTNV-1">
          <mxGeometry x="165" y="270" width="30" height="20" as="geometry" />
        </mxCell>
        <mxCell id="MLaNM-oZyAOdqdqEO5S3-17" value="" style="edgeStyle=orthogonalEdgeStyle;rounded=0;orthogonalLoop=1;jettySize=auto;html=1;" edge="1" parent="WIyWlLk6GJQsqaUBKTNV-1" source="MLaNM-oZyAOdqdqEO5S3-18" target="MLaNM-oZyAOdqdqEO5S3-19">
          <mxGeometry relative="1" as="geometry" />
        </mxCell>
        <mxCell id="MLaNM-oZyAOdqdqEO5S3-18" value="avg" style="whiteSpace=wrap;html=1;" vertex="1" parent="WIyWlLk6GJQsqaUBKTNV-1">
          <mxGeometry x="370" y="265" width="120" height="60" as="geometry" />
        </mxCell>
        <mxCell id="MLaNM-oZyAOdqdqEO5S3-19" value="End" style="ellipse;whiteSpace=wrap;html=1;" vertex="1" parent="WIyWlLk6GJQsqaUBKTNV-1">
          <mxGeometry x="370" y="355" width="120" height="30" as="geometry" />
        </mxCell>
        <mxCell id="MLaNM-oZyAOdqdqEO5S3-20" value="Среднее арифметическое значений массива" style="text;html=1;align=center;verticalAlign=middle;resizable=0;points=[];autosize=1;strokeColor=none;fillColor=none;" vertex="1" parent="WIyWlLk6GJQsqaUBKTNV-1">
          <mxGeometry x="230" y="20" width="270" height="20" as="geometry" />
        </mxCell>
      </root>
    </mxGraphModel>
  </diagram>
</mxfile>
